<svg width="64" height="64" viewBox="0 0 64 64" fill="none" xmlns="http://www.w3.org/2000/svg">
<g clip-path="url(#clip0_120_159978)">
<path d="M32.7167 55.7282C33.8908 55.7282 35.0385 55.3801 36.0147 54.7278C36.9909 54.0755 37.7518 53.1484 38.2011 52.0637C38.6504 50.979 38.7679 49.7854 38.5389 48.6339C38.3098 47.4824 37.7445 46.4247 36.9143 45.5945C36.0841 44.7643 35.0263 44.1989 33.8748 43.9698C32.7233 43.7408 31.5297 43.8583 30.445 44.3076C29.3603 44.7569 28.4332 45.5178 27.7809 46.494C27.1286 47.4702 26.7805 48.6179 26.7805 49.792C26.7805 51.3664 27.4059 52.8763 28.5192 53.9896C29.6324 55.1028 31.1423 55.7282 32.7167 55.7282Z" fill="white"/>
<path d="M39.1575 5.27026H26.2462L8.22974 54.9862H19.1376L32.7167 17.5508L46.2661 54.9862H57.2036L39.1575 5.27026Z" fill="white"/>
</g>
<defs>
<clipPath id="clip0_120_159978">
<rect width="48.9739" height="50.4579" fill="white" transform="translate(8.22974 5.27026)"/>
</clipPath>
</defs>
</svg>
