<svg width="40" height="41" viewBox="0 0 40 41" fill="none" xmlns="http://www.w3.org/2000/svg">
<g clip-path="url(#clip0_120_160017)">
<path d="M39.4014 25.3247C36.73 36.039 25.8769 42.5596 15.16 39.8877C4.44771 37.2166 -2.07357 26.364 0.599036 15.6505C3.2693 4.93501 14.1224 -1.58602 24.8359 1.08511C35.552 3.75625 42.0729 14.61 39.4011 25.3249L39.4013 25.3247H39.4014Z" fill="#F7931A"/>
<path d="M28.8201 17.6371C29.2182 14.9755 27.1916 13.5448 24.4205 12.5904L25.3195 8.98512L23.1246 8.43826L22.2494 11.9486C21.6724 11.8048 21.0798 11.6692 20.4909 11.5347L21.3723 8.00119L19.1788 7.45433L18.2793 11.0585C17.8018 10.9498 17.3328 10.8423 16.8778 10.7291L16.8804 10.7178L13.8535 9.96201L13.2696 12.3061C13.2696 12.3061 14.8981 12.6793 14.8638 12.7023C15.7526 12.9241 15.9133 13.5124 15.8866 13.9787L14.8626 18.086C14.9238 18.1015 15.0032 18.124 15.0908 18.1592C15.0176 18.141 14.9396 18.1212 14.8588 18.1018L13.4234 23.8556C13.3148 24.1256 13.0391 24.5308 12.4177 24.3769C12.4397 24.4088 10.8224 23.9788 10.8224 23.9788L9.73267 26.491L12.589 27.203C13.1204 27.3362 13.6411 27.4756 14.1539 27.6067L13.2456 31.2534L15.438 31.8002L16.3374 28.1923C16.9364 28.3549 17.5176 28.5048 18.0866 28.6462L17.1902 32.2371L19.3852 32.784L20.2934 29.1442C24.0361 29.8524 26.8504 29.5669 28.035 26.1819C28.9895 23.4566 27.9875 21.8847 26.0184 20.8596C27.4526 20.5289 28.5328 19.5857 28.8209 17.6374L28.8202 17.6369L28.8201 17.6371ZM23.8052 24.6684C23.1269 27.3937 18.5378 25.9205 17.05 25.5511L18.2553 20.7199C19.743 21.0913 24.5141 21.8262 23.8053 24.6684H23.8052ZM24.484 17.5976C23.8652 20.0765 20.0457 18.8171 18.8067 18.5083L19.8995 14.1267C21.1385 14.4355 25.1286 15.0119 24.4842 17.5976H24.484Z" fill="white"/>
</g>
<defs>
<clipPath id="clip0_120_160017">
<rect width="39.9999" height="39.9999" fill="white" transform="translate(0 0.486633)"/>
</clipPath>
</defs>
</svg>
