<svg width="40" height="41" viewBox="0 0 40 41" fill="none" xmlns="http://www.w3.org/2000/svg">
<circle cx="20" cy="20.4866" r="20" fill="white"/>
<g clip-path="url(#clip0_120_160047)">
<path d="M19.997 5.48657L19.7785 6.17023V26.0067L19.997 26.2075L29.9938 20.7647L19.997 5.48657Z" fill="#343434"/>
<path d="M19.997 5.48657L10 20.7647L19.997 26.2075V16.5794V5.48657Z" fill="#8C8C8C"/>
<path d="M19.997 27.9508L19.8739 28.0891V35.1551L19.997 35.4863L30 22.5109L19.997 27.9508Z" fill="#3C3C3B"/>
<path d="M19.997 35.4863V27.9508L10 22.5109L19.997 35.4863Z" fill="#8C8C8C"/>
<path d="M19.997 26.2075L29.9938 20.7647L19.997 16.5794V26.2075Z" fill="#141414"/>
<path d="M10 20.7647L19.997 26.2075V16.5794L10 20.7647Z" fill="#393939"/>
</g>
<defs>
<clipPath id="clip0_120_160047">
<rect width="20" height="29.9999" fill="white" transform="translate(10 5.48657)"/>
</clipPath>
</defs>
</svg>
