<svg width="40" height="41" viewBox="0 0 40 41" fill="none" xmlns="http://www.w3.org/2000/svg">
<g clip-path="url(#clip0_120_160032)">
<path d="M20 40.4865C31.0457 40.4865 39.9999 31.5322 39.9999 20.4866C39.9999 9.44091 31.0457 0.486633 20 0.486633C8.95434 0.486633 6.10352e-05 9.44091 6.10352e-05 20.4866C6.10352e-05 31.5322 8.95434 40.4865 20 40.4865Z" fill="#6747ED"/>
<path fill-rule="evenodd" clip-rule="evenodd" d="M19.7084 23.0699C16.75 23.0699 14.375 20.6949 14.375 17.7366C14.375 14.7783 16.75 12.4033 19.7084 12.4033C22.6667 12.4033 25.0417 14.7783 25.0417 17.7366C25.0417 20.6949 22.6667 23.0699 19.7084 23.0699ZM19.7084 9.7366C24.125 9.7366 27.7083 13.3199 27.7083 17.7366C27.7083 22.1532 24.125 25.7366 19.7084 25.7366C15.2917 25.7366 11.7084 22.1532 11.7084 17.7366C11.7084 13.3199 15.2917 9.7366 19.7084 9.7366ZM27.3333 26.1532C27.875 26.6949 27.875 27.5282 27.3333 28.0282L22 33.3615C21.4583 33.9032 20.625 33.9032 20.125 33.3615C19.5834 32.8199 19.5834 31.9865 20.125 31.4865L25.4583 26.1532C25.9583 25.6116 26.8333 25.6116 27.3333 26.1532ZM30.4166 11.0699C30.4166 11.8199 29.8333 12.4033 29.0833 12.4033C28.3333 12.4033 27.75 11.8199 27.75 11.0699C27.75 10.3199 28.3333 9.7366 29.0833 9.7366C29.7917 9.7366 30.4166 10.3199 30.4166 11.0699Z" fill="white"/>
</g>
<defs>
<clipPath id="clip0_120_160032">
<rect width="39.9999" height="39.9999" fill="white" transform="translate(6.10352e-05 0.486633)"/>
</clipPath>
</defs>
</svg>
